<svg width="120" height="40" viewBox="0 0 120 40" fill="none" xmlns="http://www.w3.org/2000/svg">
<path d="M41.3096 14.4531C41.2949 18.3276 40.1084 21.7627 35.3184 24.1211L34.5566 23.0811C36.9297 21.9165 38.3433 20.5029 39.1196 18.8403L34.835 19.2432L34.6299 18.042L39.5518 17.7124C39.7495 17.0386 39.8594 16.3281 39.9106 15.5811H35.3184V14.4531H41.3096ZM43.3164 26.2305V13.1201H44.708V18.3643H46.7441V19.5068H44.708V26.2305H43.3164ZM58.082 19.3457V20.4883H48.9414V14.292H57.9648V15.4346H50.3184V19.3457H58.082ZM47.4473 24.5166V23.3594H59.459V24.5166H47.4473ZM69.5029 14.2773V20.4004H63.3652V14.2773H69.5029ZM64.7275 19.3018H68.1406V15.4053H64.7275V19.3018ZM64.8447 25.9668V21.8066H66.2363V24.8389H73.7217V25.9668H64.8447ZM71.7734 22.7295V13.1055H73.165V17.0312H75.0693V18.2031H73.165V22.7295H71.7734ZM87.7988 18.4961V19.6094H75.8164V18.4961H87.7988ZM77.252 21.7188V20.6494H86.2754V23.8281H78.6289V25H86.6416V26.0986H77.2666V22.8027H84.8984V21.7188H77.252ZM77.3838 17.5439V13.501H86.2461V14.6289H78.7754V16.4307H86.3779V17.5439H77.3838ZM99.6934 13.1201V26.2451H98.2871V13.1201H99.6934ZM88.9121 22.7295C92.3984 21.0669 94.105 18.7012 94.376 15.6396H89.542V14.5264H95.7822C95.7822 18.3716 94.1489 21.6968 89.6445 23.8574L88.9121 22.7295Z" fill="white"/>
<path d="M22.2857 20.7143H18.7143C18.5119 20.7143 18.3423 20.6458 18.2054 20.5089C18.0685 20.372 18 20.2024 18 20C18 19.7976 18.0685 19.628 18.2054 19.4911C18.3423 19.3542 18.5119 19.2857 18.7143 19.2857H22.2857V15.7143C22.2857 15.5119 22.3542 15.3423 22.4911 15.2054C22.628 15.0685 22.7976 15 23 15C23.2024 15 23.372 15.0685 23.5089 15.2054C23.6458 15.3423 23.7143 15.5119 23.7143 15.7143V19.2857H27.2857C27.4881 19.2857 27.6577 19.3542 27.7946 19.4911C27.9315 19.628 28 19.7976 28 20C28 20.2024 27.9315 20.372 27.7946 20.5089C27.6577 20.6458 27.4881 20.7143 27.2857 20.7143H23.7143V24.2857C23.7143 24.4881 23.6458 24.6577 23.5089 24.7946C23.372 24.9315 23.2024 25 23 25C22.7976 25 22.628 24.9315 22.4911 24.7946C22.3542 24.6577 22.2857 24.4881 22.2857 24.2857V20.7143Z" fill="white"/>
</svg>
