<svg width="205" height="205" viewBox="0 0 205 205" fill="none" xmlns="http://www.w3.org/2000/svg">
<circle cx="102.5" cy="102.5" r="101.5" stroke="#464C55" stroke-opacity="0.7" stroke-width="2" stroke-dasharray="4 4"/>
<circle cx="103" cy="103" r="62" fill="#464C55" fill-opacity="0.7"/>
<rect x="79.1738" y="23" width="48.6957" height="48.6957" rx="10" fill="#377DFF"/>
<rect x="79.1738" y="78.6523" width="48.6957" height="48.6957" rx="10" fill="white"/>
<rect x="79.1738" y="134.304" width="48.6957" height="48.6957" rx="10" fill="#764CCB"/>
<circle cx="92.2175" cy="103" r="3.47826" fill="#2D323A"/>
<circle cx="103.522" cy="103" r="3.47826" fill="#2D323A"/>
<circle cx="114.826" cy="103" r="3.47826" fill="#2D323A"/>
<path d="M103.522 47.3479C102.087 47.3479 100.859 46.837 99.8369 45.8153C98.8152 44.7935 98.3043 43.5653 98.3043 42.1305C98.3043 40.6957 98.8152 39.4674 99.8369 38.4457C100.859 37.424 102.087 36.9131 103.522 36.9131C104.956 36.9131 106.185 37.424 107.206 38.4457C108.228 39.4674 108.739 40.6957 108.739 42.1305C108.739 43.5653 108.228 44.7935 107.206 45.8153C106.185 46.837 104.956 47.3479 103.522 47.3479ZM93.0869 57.7826V54.1305C93.0869 53.3913 93.2771 52.712 93.6576 52.0924C94.038 51.4729 94.5434 51 95.1739 50.674C96.5217 50 97.8913 49.4946 99.2826 49.1577C100.674 48.8207 102.087 48.6522 103.522 48.6522C104.956 48.6522 106.37 48.8207 107.761 49.1577C109.152 49.4946 110.522 50 111.87 50.674C112.5 51 113.005 51.4729 113.386 52.0924C113.766 52.712 113.956 53.3913 113.956 54.1305V57.7826H93.0869Z" fill="white"/>
<path d="M100 164.62C97.435 164.62 95.2557 163.723 93.4622 161.929C91.6687 160.136 90.772 157.957 90.772 155.391C90.772 152.826 91.6687 150.647 93.4622 148.853C95.2557 147.06 97.435 146.163 100 146.163C102.565 146.163 104.745 147.06 106.538 148.853C108.332 150.647 109.228 152.826 109.228 155.391C109.228 156.391 109.098 157.299 108.837 158.114C108.576 158.929 108.228 159.641 107.794 160.25L114.837 167.326C115.228 167.739 115.424 168.223 115.424 168.777C115.424 169.332 115.218 169.804 114.805 170.196C114.413 170.587 113.935 170.783 113.37 170.783C112.805 170.783 112.326 170.587 111.935 170.196L104.924 163.185C104.294 163.62 103.56 163.967 102.723 164.228C101.886 164.489 100.978 164.62 100 164.62ZM100 160.511C101.435 160.511 102.647 160.016 103.636 159.027C104.625 158.038 105.12 156.826 105.12 155.391C105.12 153.957 104.625 152.745 103.636 151.755C102.647 150.766 101.435 150.272 100 150.272C98.5654 150.272 97.3535 150.766 96.3644 151.755C95.3752 152.745 94.8807 153.957 94.8807 155.391C94.8807 156.826 95.3752 158.038 96.3644 159.027C97.3535 160.016 98.5654 160.511 100 160.511Z" fill="white"/>
</svg>
