<svg width="176" height="24" viewBox="0 0 176 24" fill="none" xmlns="http://www.w3.org/2000/svg">
<g clip-path="url(#clip0_341_127)">
<path d="M58.5783 4.04395L63.9657 17.2031H64.1765L69.564 4.04395H74.5431V23.4468H70.6309V10.7355H70.4729L65.4015 23.3546H62.7275L57.6562 10.6828H57.4981V23.4468H53.5859V4.04395H58.5783Z" fill="white"/>
<path d="M77.1504 16.202C77.1504 11.7102 79.8903 8.69373 84.2767 8.69373C88.6631 8.69373 91.4161 11.7102 91.4293 16.202C91.4161 20.7069 88.6762 23.7234 84.2767 23.7365C79.8771 23.7365 77.1373 20.7069 77.1504 16.202ZM84.303 20.6542C86.3316 20.6542 87.3985 18.7574 87.3853 16.202C87.3985 13.6465 86.3316 11.7234 84.303 11.7234C82.2745 11.7234 81.168 13.6465 81.168 16.202C81.168 18.7574 82.2218 20.641 84.303 20.6542Z" fill="white"/>
<path d="M94.0117 4.04395H97.9766V11.3282H98.082C98.6352 10.1427 99.7812 8.70695 102.231 8.70695C105.445 8.70695 108.146 11.1965 108.159 16.1888C108.146 21.0494 105.564 23.6971 102.231 23.6971C99.8602 23.6971 98.6484 22.3272 98.082 21.1285H97.9239V23.46H94.0117V4.04395ZM100.98 20.5225C103.008 20.5225 104.102 18.7311 104.089 16.1493C104.102 13.6202 103.035 11.8551 100.98 11.8551C98.925 11.8551 97.8844 13.528 97.8976 16.1493C97.8844 18.7706 99.0172 20.5094 100.98 20.5225Z" fill="white"/>
<path d="M112.677 2.93744C113.863 2.93744 114.838 3.84633 114.824 4.97915C114.838 6.07246 113.863 6.99452 112.677 6.99452C111.492 6.99452 110.504 6.08563 110.504 4.97915C110.504 3.87267 111.479 2.95061 112.677 2.93744ZM110.688 8.89134H114.653V23.4468H110.688V8.89134Z" fill="white"/>
<path d="M121.713 23.4468H117.748V4.04395H121.713V23.4468Z" fill="white"/>
<path d="M126.771 2.93744C127.957 2.93744 128.931 3.84633 128.918 4.97915C128.931 6.07246 127.957 6.99452 126.771 6.99452C125.586 6.99452 124.598 6.08563 124.598 4.97915C124.598 3.87267 125.572 2.95061 126.771 2.93744ZM124.782 8.89134H128.747V23.4468H124.782V8.89134Z" fill="white"/>
<path d="M136.558 14.8979C137.599 14.832 139.562 14.7398 140.181 14.7135V13.528C140.168 12.303 139.338 11.618 137.849 11.6048C136.493 11.618 135.649 12.2239 135.439 13.2118H131.658C131.895 10.6959 134.095 8.70691 137.955 8.70691C141.129 8.70691 144.132 10.1295 144.119 13.6334V23.4468H140.365V21.4314H140.26C139.548 22.775 138.152 23.7234 135.992 23.7102C133.199 23.7234 131.158 22.2481 131.145 19.3633C131.158 16.1229 133.753 15.056 136.558 14.8847V14.8979ZM137.125 20.9835C138.929 20.9835 140.194 19.798 140.181 18.2437V17.1899C139.575 17.2162 137.876 17.3084 137.204 17.3611C135.821 17.4797 134.951 18.1383 134.951 19.258C134.951 20.3776 135.847 20.9572 137.125 20.9704V20.9835Z" fill="white"/>
<path d="M151.113 23.4467H147.148V8.89131H150.929V11.4336H151.087C151.746 9.76069 153.3 8.69373 155.46 8.69373C158.503 8.69373 160.479 10.775 160.466 14.1602V23.4336H156.527V14.8584C156.514 13.0669 155.552 11.9868 153.906 11.9868C152.259 11.9868 151.113 13.0933 151.113 15.0164V23.4336V23.4467Z" fill="white"/>
<path d="M169.463 11.5126C168.172 11.5258 167.197 12.1317 167.21 13.0143C167.197 13.6729 167.711 14.1734 169.081 14.4632L171.676 15.0033C174.508 15.596 175.864 16.8474 175.878 18.9418C175.878 21.8134 173.296 23.7234 169.423 23.7365C165.498 23.7365 163.193 21.9714 162.863 19.1262H166.854C167.039 20.259 167.961 20.8518 169.423 20.865C170.872 20.8518 171.834 20.2722 171.834 19.337C171.834 18.5862 171.215 18.1119 169.845 17.8353L167.434 17.348C164.655 16.7947 163.245 15.3721 163.258 13.225C163.245 10.4325 165.643 8.69373 169.397 8.69373C173.151 8.69373 175.351 10.4325 175.561 13.1987H171.834C171.662 12.1844 170.78 11.5258 169.449 11.5126H169.463Z" fill="white"/>
<path d="M0 0.57959H5.03183V10.0637L13.8968 0.57959H20.483L10.3271 11.1965L21.3524 23.4204H14.3183L5.03183 12.5796V23.4204H0V0.57959Z" fill="white"/>
<path d="M42.099 21.8134C39.1352 23.3677 35.8816 24 32.5227 24C25.3964 24 20.1934 19.3238 20.1934 12C20.1934 4.67618 25.3833 0 32.5227 0C36.1319 0 39.3328 0.803513 41.6248 2.93743L38.0814 6.8101C36.7246 5.38749 35.0781 4.64984 32.5358 4.64984C28.2417 4.64984 25.4359 7.74533 25.4359 12C25.4359 16.2547 28.2417 19.3633 32.5358 19.3633C34.7225 19.3633 36.3426 18.7442 37.2779 18.2305V14.5159H33.1813V9.86608H42.1121V21.8002H42.099V21.8134Z" fill="white"/>
</g>
<defs>
<clipPath id="clip0_341_127">
<rect width="175.877" height="24" fill="white"/>
</clipPath>
</defs>
</svg>
