<svg width="18" height="18" viewBox="0 0 18 18" fill="none" xmlns="http://www.w3.org/2000/svg">
<path d="M7.16251 11.21L13.4381 4.93452C13.609 4.76359 13.8118 4.67813 14.0464 4.67813C14.2811 4.67813 14.4838 4.76359 14.6548 4.93452C14.8257 5.10544 14.9112 5.30823 14.9112 5.54288C14.9112 5.77752 14.8257 5.9803 14.6548 6.15122L7.76372 13.0423C7.5928 13.2132 7.39239 13.2986 7.16251 13.2986C6.93262 13.2986 6.73221 13.2132 6.56129 13.0423L3.34525 9.82623C3.17432 9.6553 3.09124 9.45252 3.09599 9.21788C3.10075 8.98323 3.18859 8.78044 3.35952 8.60952C3.53044 8.43859 3.73323 8.35313 3.96788 8.35313C4.20252 8.35313 4.4053 8.43859 4.57622 8.60952L7.16251 11.21Z" fill="#377DFF"/>
</svg>
