<svg width="134" height="20" viewBox="0 0 134 20" fill="none" xmlns="http://www.w3.org/2000/svg">
<path d="M39.0894 6.7458H41.5793C41.1674 4.08745 38.8554 2.23413 35.8695 2.23413C32.3219 2.23413 29.6635 4.84562 29.6729 9.19818C29.6635 13.4946 32.2002 16.1623 35.9444 16.1623C39.2954 16.1623 41.6916 14.0001 41.6916 10.5087V8.87996H36.1877V10.8081H39.3328C39.2954 12.7364 37.9943 13.9719 35.9444 13.9719C33.6791 13.9719 32.116 12.259 32.1254 9.17944C32.116 6.12799 33.7072 4.42442 35.8882 4.42442C37.5356 4.42442 38.6495 5.30432 39.0894 6.7458ZM48.2251 16.1811C51.2018 16.1811 53.102 14.0749 53.0926 10.9392C53.102 7.77544 51.2018 5.67867 48.2251 5.67867C45.2579 5.67867 43.3577 7.77544 43.3577 10.9392C43.3577 14.0749 45.2579 16.1811 48.2251 16.1811ZM45.7727 10.9205C45.7727 9.05781 46.5871 7.5601 48.2439 7.56947C49.8726 7.5601 50.687 9.05781 50.6776 10.9205C50.687 12.7832 49.8726 14.2715 48.2439 14.2715C46.5871 14.2715 45.7727 12.7832 45.7727 10.9205ZM59.3827 16.1811C62.3593 16.1811 64.2595 14.0749 64.2501 10.9392C64.2595 7.77544 62.3593 5.67867 59.3827 5.67867C56.4155 5.67867 54.5153 7.77544 54.5153 10.9392C54.5153 14.0749 56.4155 16.1811 59.3827 16.1811ZM56.9303 10.9205C56.9303 9.05781 57.7446 7.5601 59.4015 7.56947C61.0302 7.5601 61.8445 9.05781 61.8351 10.9205C61.8445 12.7832 61.0302 14.2715 59.4015 14.2715C57.7446 14.2715 56.9303 12.7832 56.9303 10.9205ZM70.5403 20.0001C73.2829 20.0001 75.2953 18.7458 75.2953 16.1436V5.80977H72.9366V7.47586H72.8242C72.4498 6.75517 71.6916 5.67867 69.9038 5.67867C67.545 5.67867 65.6916 7.46649 65.6916 10.8081C65.6916 14.1218 67.5356 15.8254 69.885 15.8254C71.6355 15.8254 72.4498 14.8893 72.8242 14.1404H72.9366V16.0875C72.9366 17.5757 72.0099 18.1935 70.5777 18.2029C69.3516 18.1935 68.5184 17.7817 68.3499 16.8924H65.9724C66.1315 18.802 67.8445 20.0001 70.5403 20.0001ZM68.1253 10.8456C68.1253 8.99232 68.949 7.63497 70.5403 7.6257C72.0942 7.63497 72.9553 8.90808 72.9553 10.8456C72.9553 12.7926 72.0848 13.9533 70.5403 13.9533C68.9677 13.9533 68.1253 12.7177 68.1253 10.8456ZM79.9758 2.42125H77.5793V15.9751H79.9758V2.42125ZM86.7716 16.1811C89.1295 16.1811 90.759 15.0203 91.1892 13.2606H88.8494C88.5406 13.8691 87.8387 14.3183 86.7897 14.3089C85.2454 14.3183 84.2252 13.2886 84.1879 11.5571H91.2829V10.8081C91.2829 7.24188 89.1295 5.67867 86.6406 5.67867C83.7385 5.67867 81.8289 7.81283 81.8289 10.958C81.8289 14.1404 83.7108 16.1811 86.7716 16.1811ZM84.1975 9.92835C84.2816 8.63661 85.2454 7.53209 86.6779 7.53209C88.0539 7.53209 88.99 8.54299 88.9985 9.92835H84.1975ZM97.7976 15.9751H100.231V11.3886H102.852C105.979 11.3886 107.654 9.50714 107.664 6.91428C107.654 4.31206 105.997 2.42125 102.889 2.42125H97.7976V15.9751ZM100.231 9.38541V4.4619H102.516C104.349 4.4619 105.174 5.46343 105.174 6.91428C105.174 8.34639 104.349 9.37604 102.516 9.38541H100.231ZM111.913 2.42125H109.517V15.9751H111.913V2.42125ZM113.729 13.1108C113.729 15.1233 115.199 16.1811 117.136 16.1811C118.737 16.1811 119.682 15.4322 120.132 14.571H120.206V15.9751H122.491V9.17944C122.491 6.47433 120.263 5.67867 118.334 5.67867C115.789 5.67867 114.235 6.97978 114.067 8.71148H116.369C116.555 7.98131 117.212 7.49461 118.279 7.49461C119.467 7.49461 120.113 8.07492 120.113 9.08582L120.122 9.90023C119.673 9.91897 118.222 9.98447 117.511 10.0406C115.629 10.1623 113.729 10.8269 113.729 13.1108ZM116.031 13.0922C116.031 12.2029 116.752 11.7255 117.885 11.6319C118.363 11.5944 119.692 11.5102 120.122 11.4915L120.132 12.3246C120.132 13.4665 119.205 14.4213 117.754 14.4213C116.752 14.4213 116.031 13.9719 116.031 13.0922ZM125.804 19.7941C127.713 19.7847 128.781 18.8301 129.361 17.2107L133.442 5.80977H130.915L128.556 13.4852H128.444L126.085 5.80977H123.558L127.264 16.1811L127.059 16.7239C126.646 17.8191 126.16 17.8565 125.579 17.8659C125.261 17.8565 124.858 17.8565 124.569 17.8284V19.738C124.877 19.7755 125.327 19.7847 125.804 19.7941Z" fill="white"/>
<mask id="mask0_656_326" style="mask-type:luminance" maskUnits="userSpaceOnUse" x="0" y="0" width="18" height="20">
<path d="M17.04 0H0V19.17H17.04V0Z" fill="white"/>
</mask>
<g mask="url(#mask0_656_326)">
<path d="M15.9346 7.65335L3.31642 0.302274C1.84245 -0.55665 0 0.517297 0 2.23397V16.9361C0 18.6529 1.84245 19.7267 3.31642 18.8678L15.9346 11.5169C17.4085 10.6579 17.4085 8.51121 15.9346 7.65335Z" fill="#EA4335"/>
<path d="M17.04 9.57983C17.038 8.83007 16.6695 8.08116 15.9346 7.65335L3.31642 0.302274C1.84245 -0.55665 0 0.517297 0 2.23397V9.57983H17.04Z" fill="#34A853"/>
<path d="M15.935 7.65349L12.2099 5.48291L8.24512 9.5853L12.209 13.6866L15.935 11.5159C17.4089 10.6571 17.4089 8.51135 15.935 7.65349Z" fill="#FBBC04"/>
<path d="M0.0421745 1.7959C0.0154429 1.93605 0 2.08249 0 2.23415V16.9362C0 17.0878 0.0154429 17.2343 0.0421745 17.3745L8.24472 9.58618L0.0421745 1.7959Z" fill="#4285F4"/>
</g>
</svg>
