<svg width="70" height="70" viewBox="0 0 70 70" fill="none" xmlns="http://www.w3.org/2000/svg">
<circle cx="35" cy="35" r="35" fill="#377DFF"/>
<circle cx="35" cy="35" r="20" fill="#185DDC"/>
<path d="M25.9385 30.8C25.9385 29.584 26.2905 28.632 26.9945 27.944C27.7145 27.256 28.6345 26.912 29.7545 26.912C30.8745 26.912 31.7865 27.256 32.4905 27.944C33.2105 28.632 33.5705 29.584 33.5705 30.8C33.5705 32.032 33.2105 32.992 32.4905 33.68C31.7865 34.368 30.8745 34.712 29.7545 34.712C28.6345 34.712 27.7145 34.368 26.9945 33.68C26.2905 32.992 25.9385 32.032 25.9385 30.8ZM41.3465 27.2L31.9145 44H28.6505L38.0585 27.2H41.3465ZM29.7305 28.928C28.8505 28.928 28.4105 29.552 28.4105 30.8C28.4105 32.064 28.8505 32.696 29.7305 32.696C30.1625 32.696 30.4985 32.544 30.7385 32.24C30.9785 31.92 31.0985 31.44 31.0985 30.8C31.0985 29.552 30.6425 28.928 29.7305 28.928ZM36.4745 40.376C36.4745 39.144 36.8265 38.192 37.5305 37.52C38.2505 36.832 39.1705 36.488 40.2905 36.488C41.4105 36.488 42.3145 36.832 43.0025 37.52C43.7065 38.192 44.0585 39.144 44.0585 40.376C44.0585 41.608 43.7065 42.568 43.0025 43.256C42.3145 43.944 41.4105 44.288 40.2905 44.288C39.1545 44.288 38.2345 43.944 37.5305 43.256C36.8265 42.568 36.4745 41.608 36.4745 40.376ZM40.2665 38.504C39.3545 38.504 38.8985 39.128 38.8985 40.376C38.8985 41.64 39.3545 42.272 40.2665 42.272C41.1625 42.272 41.6105 41.64 41.6105 40.376C41.6105 39.128 41.1625 38.504 40.2665 38.504Z" fill="white" fill-opacity="0.9"/>
</svg>
