<svg width="70" height="70" viewBox="0 0 70 70" fill="none" xmlns="http://www.w3.org/2000/svg">
<circle cx="35" cy="35" r="35" fill="#4DAAFF"/>
<rect x="22" y="21" width="26" height="27" fill="white"/>
<path d="M27.7602 46.0045H30.0045V42.2398H33.7692V39.9955H30.0045V36.2308H27.7602V39.9955H23.9954V42.2398H27.7602V46.0045ZM37.172 44.5928H46.0045V42.3484H37.172V44.5928ZM37.172 39.8869H46.0045V37.6425H37.172V39.8869ZM38.953 32.5891L41.5883 29.9538L44.2236 32.5891L45.8018 31.0109L43.1665 28.3176L45.8018 25.6823L44.2236 24.1041L41.5883 26.7394L38.953 24.1041L37.3747 25.6823L40.01 28.3176L37.3747 31.0109L38.953 32.5891ZM24.466 29.4398H33.2986V27.1955H24.466V29.4398ZM22.4027 51C21.4519 51 20.6471 50.6706 19.9882 50.0118C19.3294 49.3529 19 48.5481 19 47.5973V22.4027C19 21.4519 19.3294 20.6471 19.9882 19.9882C20.6471 19.3294 21.4519 19 22.4027 19H47.5973C48.5481 19 49.3529 19.3294 50.0118 19.9882C50.6706 20.6471 51 21.4519 51 22.4027V47.5973C51 48.5481 50.6706 49.3529 50.0118 50.0118C49.3529 50.6706 48.5481 51 47.5973 51H22.4027Z" fill="#267DCF"/>
</svg>
