<svg width="24" height="24" viewBox="0 0 24 24" fill="none" xmlns="http://www.w3.org/2000/svg">
<path d="M11.375 11.9998L15.275 15.8998C15.4583 16.0831 15.55 16.3165 15.55 16.5998C15.55 16.8831 15.4583 17.1165 15.275 17.2998C15.0917 17.4831 14.8583 17.5748 14.575 17.5748C14.2917 17.5748 14.0583 17.4831 13.875 17.2998L9.275 12.6998C9.175 12.5998 9.10417 12.4915 9.0625 12.3748C9.02083 12.2581 9 12.1331 9 11.9998C9 11.8665 9.02083 11.7415 9.0625 11.6248C9.10417 11.5081 9.175 11.3998 9.275 11.2998L13.875 6.6998C14.0583 6.51647 14.2917 6.4248 14.575 6.4248C14.8583 6.4248 15.0917 6.51647 15.275 6.6998C15.4583 6.88314 15.55 7.11647 15.55 7.3998C15.55 7.68314 15.4583 7.91647 15.275 8.0998L11.375 11.9998Z" fill="#333333"/>
</svg>
