<svg width="70" height="70" viewBox="0 0 70 70" fill="none" xmlns="http://www.w3.org/2000/svg">
<circle cx="35" cy="35" r="35" fill="#1FBF75"/>
<path d="M46.5015 37.3598C47.0198 37.3598 47.463 37.1753 47.8309 36.8062C48.1988 36.4371 48.3828 35.9934 48.3828 35.4751C48.3828 34.9567 48.1982 34.5136 47.8291 34.1457C47.46 33.7778 47.0163 33.5938 46.498 33.5938C45.9797 33.5938 45.5366 33.7784 45.1686 34.1475C44.8007 34.5166 44.6168 34.9603 44.6168 35.4786C44.6168 35.9969 44.8013 36.44 45.1704 36.8079C45.5395 37.1759 45.9832 37.3598 46.5015 37.3598ZM46.4998 47.4059C43.8782 45.1342 41.9124 43.0202 40.6023 41.0638C39.2923 39.1073 38.6372 37.3111 38.6372 35.6751C38.6372 33.2713 39.4148 31.3252 40.9699 29.8368C42.5251 28.3484 44.3684 27.6042 46.4998 27.6042C48.6312 27.6042 50.4744 28.3484 52.0296 29.8368C53.5847 31.3252 54.3623 33.2713 54.3623 35.6751C54.3623 37.3111 53.7073 39.1073 52.3972 41.0638C51.0871 43.0202 49.1213 45.1342 46.4998 47.4059Z" fill="#0F9C5A"/>
<path d="M30.0024 34.798C30.7487 34.798 31.3868 34.5323 31.9166 34.0008C32.4464 33.4693 32.7113 32.8303 32.7113 32.084C32.7113 31.3376 32.4456 30.6995 31.9141 30.1697C31.3826 29.6399 30.7436 29.375 29.9973 29.375C29.2509 29.375 28.6128 29.6408 28.083 30.1723C27.5532 30.7038 27.2883 31.3427 27.2883 32.0891C27.2883 32.8354 27.554 33.4735 28.0855 34.0033C28.617 34.5331 29.256 34.798 30.0024 34.798ZM29.9998 49.2643C26.2248 45.9932 23.3941 42.949 21.5075 40.1317C19.621 37.3144 18.6777 34.7279 18.6777 32.3721C18.6777 28.9106 19.7974 26.1082 22.0369 23.9649C24.2763 21.8216 26.9306 20.75 29.9998 20.75C33.069 20.75 35.7233 21.8216 37.9627 23.9649C40.2022 26.1082 41.3219 28.9106 41.3219 32.3721C41.3219 34.7279 40.3786 37.3144 38.4921 40.1317C36.6055 42.949 33.7748 45.9932 29.9998 49.2643Z" fill="white"/>
</svg>
