<svg width="114" height="22" viewBox="0 0 114 22" fill="none" xmlns="http://www.w3.org/2000/svg">
<path d="M29.7657 18.216L30.8787 14.8957H35.9333L37.0555 18.216H39.6339L34.8853 4.78648H31.9175L27.1875 18.216H29.7657ZM31.5279 12.9481L33.3457 7.53177H33.4571L35.2841 12.9481H31.5279ZM41.1177 21.9999H43.492V16.6208H43.5847C43.9558 17.3627 44.7441 18.3922 46.4784 18.4015C48.8527 18.3922 50.6241 16.5002 50.6334 13.1892C50.6241 9.83186 48.7971 8.01401 46.4784 8.01401C44.6884 8.01401 43.9465 9.08064 43.5847 9.79471H43.4364V8.14391H41.1177V21.9999ZM43.4364 13.1707C43.4457 11.2138 44.2804 9.95236 45.8292 9.94318C47.4151 9.95236 48.2221 11.2973 48.2221 13.1707C48.2221 15.0719 47.3966 16.4539 45.8292 16.4539C44.2989 16.4539 43.4457 15.1368 43.4364 13.1707ZM52.4883 21.9999H54.8625V16.6208H54.9553C55.3263 17.3627 56.1146 18.3922 57.849 18.4015C60.2232 18.3922 61.9946 16.5002 62.0039 13.1892C61.9946 9.83186 60.1676 8.01401 57.849 8.01401C56.059 8.01401 55.317 9.08064 54.9553 9.79471H54.8069V8.14391H52.4883V21.9999ZM54.8069 13.1707C54.8162 11.2138 55.6509 9.95236 57.1998 9.94318C58.7857 9.95236 59.5925 11.2973 59.5925 13.1707C59.5925 15.0719 58.7671 16.4539 57.1998 16.4539C55.6695 16.4539 54.8162 15.1368 54.8069 13.1707ZM75.7856 8.47778H78.105C78.067 6.20555 76.1285 4.60107 73.2815 4.60107C70.4535 4.60107 68.3477 6.1777 68.3477 8.55197C68.3477 10.481 69.7203 11.594 71.9276 12.169L73.4482 12.5586C74.9044 12.9295 75.8689 13.3747 75.8784 14.432C75.8689 15.582 74.7747 16.3518 73.1886 16.3611C71.6586 16.3518 70.4809 15.6655 70.3691 14.2651H67.9952C68.0973 16.9175 70.082 18.4201 73.2076 18.4201C76.4261 18.4201 78.2896 16.8063 78.2896 14.4505C78.2896 12.1134 76.3607 11.056 74.3578 10.5924L73.0958 10.2585C71.9836 9.9988 70.7869 9.53502 70.7964 8.4036C70.8059 7.39269 71.7145 6.65065 73.2446 6.65994C74.6913 6.65065 75.6653 7.31851 75.7856 8.47778ZM85.2088 8.14391H83.2239V5.73249H80.8686V8.14391H79.4219V9.96165H80.8686V15.582C80.8496 17.4741 82.2225 18.3551 84.0027 18.3458C84.6063 18.3551 85.06 18.2995 85.3386 18.2531V16.324C85.0421 16.3425 84.5778 16.3704 84.3002 16.3611C83.7061 16.3518 83.2239 16.157 83.2239 15.1925V9.96165H85.2088V8.14391ZM91.3112 18.4201C94.2606 18.4201 96.1431 16.3332 96.1336 13.2263C96.1431 10.0916 94.2606 8.01401 91.3112 8.01401C88.3713 8.01401 86.4888 10.0916 86.4888 13.2263C86.4888 16.3332 88.3713 18.4201 91.3112 18.4201ZM88.881 13.2078C88.881 11.3622 89.6882 9.87818 91.3302 9.88747C92.9436 9.87818 93.7509 11.3622 93.7414 13.2078C93.7509 15.0534 92.9436 16.528 91.3302 16.528C89.6882 16.528 88.881 15.0534 88.881 13.2078ZM97.9708 18.216H100.345V12.2803C100.345 11.0097 101.31 10.1008 102.626 10.0916C103.016 10.1008 103.508 10.1657 103.721 10.2399V8.05116C103.498 8.0233 103.127 7.99554 102.867 7.99554C101.708 7.99554 100.744 8.65401 100.382 9.81329H100.27V8.14391H97.9708V18.216ZM109.267 18.4201C111.604 18.4201 113.218 17.27 113.644 15.5264H111.326C111.02 16.1293 110.324 16.5744 109.285 16.5651C107.755 16.5744 106.744 15.5542 106.707 13.8385H113.737V13.0964C113.737 9.56288 111.604 8.01401 109.137 8.01401C106.262 8.01401 104.37 10.1286 104.37 13.2449C104.37 16.3981 106.234 18.4201 109.267 18.4201ZM106.717 12.2247C106.8 10.9448 107.755 9.85043 109.174 9.85043C110.538 9.85043 111.465 10.8521 111.475 12.2247H106.717Z" fill="white"/>
<path d="M15.1458 6.51426C15.0337 6.601 13.0658 7.70319 13.0658 10.1553C13.0658 12.9914 15.5692 13.9946 15.644 14.0193C15.6316 14.0811 15.2455 15.3939 14.3237 16.7314C13.5017 17.908 12.6422 19.0845 11.3345 19.0845C10.0267 19.0845 9.6903 18.3291 8.18322 18.3291C6.71349 18.3291 6.19031 19.1093 4.99462 19.1093C3.79883 19.1093 2.96436 18.0195 2.00536 16.6819C0.896844 15.109 0 12.6693 0 10.3534C0 6.63804 2.42883 4.66887 4.8202 4.66887C6.09069 4.66887 7.1493 5.4986 7.94643 5.4986C8.70619 5.4986 9.88953 4.61928 11.3344 4.61928C11.8824 4.61938 13.8504 4.66908 15.1458 6.51426ZM10.6494 3.04666C11.2472 2.34071 11.6708 1.3623 11.6708 0.383998C11.6708 0.247768 11.6583 0.111538 11.6334 0C10.6619 0.0372497 9.50352 0.644113 8.80602 1.44904C8.25793 2.06825 7.7472 3.04667 7.7472 4.03753C7.7472 4.18611 7.77221 4.33479 7.78466 4.38428C7.84681 4.39662 7.94664 4.40908 8.04625 4.40908C8.91808 4.40897 10.0142 3.8269 10.6494 3.04666Z" fill="#D6D6D6"/>
</svg>
