<svg width="16" height="16" viewBox="0 0 16 16" fill="none" xmlns="http://www.w3.org/2000/svg">
<path d="M6.36669 9.96448L11.945 4.38623C12.0969 4.23429 12.2771 4.15833 12.4857 4.15833C12.6943 4.15833 12.8745 4.23429 13.0265 4.38623C13.1784 4.53816 13.2544 4.71841 13.2544 4.92699C13.2544 5.13556 13.1784 5.31581 13.0265 5.46774L6.9011 11.5931C6.74917 11.745 6.57103 11.821 6.36669 11.821C6.16234 11.821 5.9842 11.745 5.83227 11.5931L2.97357 8.73441C2.82164 8.58248 2.74778 8.40223 2.752 8.19366C2.75624 7.98508 2.83432 7.80483 2.98625 7.65289C3.13819 7.50096 3.31844 7.42499 3.52702 7.42499C3.73559 7.42499 3.91584 7.50096 4.06777 7.65289L6.36669 9.96448Z" fill="white"/>
</svg>
