<svg width="40" height="40" viewBox="0 0 40 40" fill="none" xmlns="http://www.w3.org/2000/svg">
<circle cx="20" cy="20" r="20" fill="#377DFF"/>
<path d="M17.7288 23.2718L26.4967 14.504C26.7036 14.2971 26.9493 14.1936 27.2338 14.1936C27.5183 14.1936 27.764 14.2971 27.9709 14.504C28.1778 14.7109 28.2813 14.9566 28.2813 15.2411C28.2813 15.5256 28.1778 15.7713 27.9709 15.9782L18.453 25.4961C18.2461 25.7031 18.0047 25.8065 17.7288 25.8065C17.4529 25.8065 17.2115 25.7031 17.0046 25.4961L12.556 21.0475C12.3491 20.8406 12.25 20.5949 12.2586 20.3104C12.2672 20.0259 12.375 19.7802 12.5819 19.5733C12.7888 19.3664 13.0345 19.2629 13.319 19.2629C13.6035 19.2629 13.8492 19.3664 14.0561 19.5733L17.7288 23.2718Z" fill="white"/>
</svg>
