<svg width="17" height="22" viewBox="0 0 17 22" fill="none" xmlns="http://www.w3.org/2000/svg">
<path d="M2.09524 22C1.51905 22 1.02579 21.7948 0.615476 21.3845C0.205159 20.9742 0 20.481 0 19.9048V9.42857C0 8.85238 0.205159 8.35913 0.615476 7.94881C1.02579 7.53849 1.51905 7.33333 2.09524 7.33333H3.14286V5.2381C3.14286 3.78889 3.65357 2.55357 4.675 1.53214C5.69643 0.510714 6.93175 0 8.38095 0C9.83016 0 11.0655 0.510714 12.0869 1.53214C13.1083 2.55357 13.619 3.78889 13.619 5.2381V7.33333H14.6667C15.2429 7.33333 15.7361 7.53849 16.1464 7.94881C16.5567 8.35913 16.7619 8.85238 16.7619 9.42857V19.9048C16.7619 20.481 16.5567 20.9742 16.1464 21.3845C15.7361 21.7948 15.2429 22 14.6667 22H2.09524ZM2.09524 19.9048H14.6667V9.42857H2.09524V19.9048ZM8.38095 16.7619C8.95714 16.7619 9.4504 16.5567 9.86072 16.1464C10.271 15.7361 10.4762 15.2429 10.4762 14.6667C10.4762 14.0905 10.271 13.5972 9.86072 13.1869C9.4504 12.7766 8.95714 12.5714 8.38095 12.5714C7.80476 12.5714 7.31151 12.7766 6.90119 13.1869C6.49087 13.5972 6.28571 14.0905 6.28571 14.6667C6.28571 15.2429 6.49087 15.7361 6.90119 16.1464C7.31151 16.5567 7.80476 16.7619 8.38095 16.7619ZM5.2381 7.33333H11.5238V5.2381C11.5238 4.36508 11.2183 3.62302 10.6071 3.0119C9.99603 2.40079 9.25397 2.09524 8.38095 2.09524C7.50794 2.09524 6.76587 2.40079 6.15476 3.0119C5.54365 3.62302 5.2381 4.36508 5.2381 5.2381V7.33333Z" fill="#B6B6B6" fill-opacity="0.5"/>
</svg>
