<svg width="12" height="12" viewBox="0 0 12 12" fill="none" xmlns="http://www.w3.org/2000/svg">
<path d="M6 7.42239L1.70561 11.7168C1.5168 11.9056 1.27973 12 0.994413 12C0.709095 12 0.47203 11.9056 0.283218 11.7168C0.0944059 11.528 0 11.2909 0 11.0056C0 10.7203 0.0944059 10.4832 0.283218 10.2944L4.57761 6L0.283218 1.70561C0.0944059 1.5168 0 1.27973 0 0.994413C0 0.709095 0.0944059 0.47203 0.283218 0.283218C0.47203 0.0944062 0.709095 0 0.994413 0C1.27973 0 1.5168 0.0944062 1.70561 0.283218L6 4.57761L10.2944 0.283218C10.4832 0.0944062 10.7203 0 11.0056 0C11.2909 0 11.528 0.0944062 11.7168 0.283218C11.9056 0.47203 12 0.709095 12 0.994413C12 1.27973 11.9056 1.5168 11.7168 1.70561L7.42239 6L11.7168 10.2944C11.9056 10.4832 12 10.7203 12 11.0056C12 11.2909 11.9056 11.528 11.7168 11.7168C11.528 11.9056 11.2909 12 11.0056 12C10.7203 12 10.4832 11.9056 10.2944 11.7168L6 7.42239Z" fill="#333333"/>
</svg>
