<svg width="423" height="110" viewBox="0 0 423 110" fill="none" xmlns="http://www.w3.org/2000/svg">
<path d="M370.114 108H329.914V1.80005H369.814C402.514 1.95005 422.914 21.75 422.914 54.9C422.914 88.05 402.514 108 370.114 108ZM357.814 84.3H369.214C385.564 84.3 394.864 77.25 394.714 54.9C394.864 32.55 385.564 25.65 368.614 25.5H357.814V84.3Z" fill="#EFF5FB"/>
<path d="M229.941 108V1.80005H274.941C298.791 1.95005 314.241 15.45 314.241 37.8C314.241 52.5 307.491 62.7 296.241 68.25L317.841 108H287.541L268.491 72.6001H257.841V108H229.941ZM257.841 51H268.641C279.141 50.85 285.141 47.1 285.141 37.8C285.141 28.5 279.141 24.3 268.641 24.3H257.841V51Z" fill="#EFF5FB"/>
<path d="M138.197 108H108.197L143.297 1.80005H181.397L216.497 108H186.497L180.197 87.3H144.497L138.197 108ZM150.947 66.3H173.747L162.797 30.3H161.897L150.947 66.3Z" fill="#EFF5FB"/>
<path d="M70.5989 41.4C69.5489 31.35 62.9489 24.75 51.6989 24.9C36.9989 24.75 28.5989 36 28.5989 54.9C28.5989 74.85 37.1489 85.05 51.3989 85.2C62.1989 85.05 69.0989 79.35 70.5989 69.9L98.7989 70.2C97.2989 88.35 81.3989 109.5 50.7989 109.5C21.8489 109.5 -0.0510899 90.15 0.0989104 54.9C-0.0510899 19.65 22.4489 0.450004 50.7989 0.600002C77.3489 0.450004 96.5489 15.3 98.7989 41.4H70.5989Z" fill="#EFF5FB"/>
</svg>
