<svg width="846" height="110" viewBox="0 0 846 110" fill="none" xmlns="http://www.w3.org/2000/svg">
<path d="M817.183 34.8C816.733 27.6 812.083 23.4 802.483 23.4C793.333 23.4 789.133 27 788.983 32.1C788.833 37.5 793.783 40.5 803.683 42.6L812.383 44.4C835.183 49.35 845.383 60.45 845.383 76.8C845.383 97.5 829.483 109.35 802.783 109.2C775.333 109.35 757.483 97.35 757.183 71.4H783.883C784.333 81.15 791.083 86.25 802.183 86.4C811.783 86.25 816.883 82.35 816.883 76.8C816.883 71.7 812.533 68.7 800.683 66L790.183 63.6C771.433 59.7 759.883 50.4 759.883 33.9C759.883 13.95 777.583 0.449994 802.483 0.599992C827.983 0.449994 843.883 14.1 844.183 34.8H817.183Z" fill="#EFF5FB"/>
<path d="M742.767 1.80005V108H719.367L680.067 50.7H679.467V108H651.567V1.80005H675.267L713.967 59.1H714.867V1.80005H742.767Z" fill="#EFF5FB"/>
<path d="M559.823 108H529.823L564.923 1.80005H603.023L638.123 108H608.123L601.823 87.3H566.123L559.823 108ZM572.573 66.3H595.373L584.423 30.3H583.523L572.573 66.3Z" fill="#EFF5FB"/>
<path d="M516.583 1.80005V108H488.683V1.80005H516.583Z" fill="#EFF5FB"/>
<path d="M402.626 108V1.80005H430.526V85.5H473.726V108H402.626Z" fill="#EFF5FB"/>
<path d="M385.485 1.80005V108H357.585V1.80005H385.485Z" fill="#EFF5FB"/>
<path d="M257.319 108V1.80005H302.619C326.919 1.95005 339.519 12.45 339.519 28.5C339.519 40.35 331.269 49.2 319.119 51.6V52.8C332.619 53.25 343.719 63 343.719 78C343.719 95.4 329.619 108 306.519 108H257.319ZM285.219 85.5H299.319C309.369 85.65 314.319 81.75 314.319 74.4C314.319 66.9 308.769 62.4 299.619 62.4H285.219V85.5ZM285.219 45H297.519C305.469 45 310.869 41.25 311.019 34.5C310.869 27.75 305.619 23.85 298.119 24H285.219V45Z" fill="#EFF5FB"/>
<path d="M240.889 54.9C240.889 90.3 218.239 109.5 189.589 109.5C160.639 109.5 138.139 90.15 138.289 54.9C138.139 19.65 160.639 0.449995 189.589 0.599993C218.239 0.449995 240.889 19.65 240.889 54.9ZM166.789 54.9C166.789 74.55 174.889 85.05 189.589 85.2C204.139 85.05 212.089 74.55 212.089 54.9C212.089 35.4 204.139 24.75 189.589 24.9C174.889 24.75 166.789 35.4 166.789 54.9Z" fill="#EFF5FB"/>
<path d="M0.245117 1.80005H34.7451L60.2451 63.6H61.4451L86.6451 1.80005H121.445V108H94.1451V45.6H93.2451L69.2451 107.1H52.4451L28.1451 45.3H27.5451V108H0.245117V1.80005Z" fill="#EFF5FB"/>
</svg>
