<svg width="150" height="30" viewBox="0 0 150 30" fill="none" xmlns="http://www.w3.org/2000/svg">
<path d="M83.2531 22.4223H71.0386C70.7846 22.4223 70.6185 22.3947 70.544 22.3357C70.4676 22.2767 70.4313 22.1255 70.4313 21.8803V20.4034C70.4313 19.6659 70.2136 19.122 69.7801 18.7753C69.3447 18.4269 68.8119 18.2535 68.1817 18.2535C67.5515 18.2535 67.0072 18.4269 66.5508 18.7753C66.0925 19.122 65.8652 19.6659 65.8652 20.4034V22.6196C65.8652 23.1986 65.913 23.6909 66.0123 24.0965C66.1097 24.5021 66.2777 24.8285 66.5183 25.0737C66.759 25.3208 67.0836 25.5015 67.498 25.6176C67.9105 25.732 68.4319 25.791 69.0621 25.791H83.255C83.931 25.791 84.4142 25.6213 84.7064 25.2802C84.9985 24.941 85.1437 24.5446 85.1437 24.0965C85.1437 23.6632 85.0024 23.276 84.7178 22.9349C84.4314 22.5938 83.9444 22.4223 83.2531 22.4223Z" fill="#00274B"/>
<path d="M106.34 22.2693C106.183 22.096 105.981 21.954 105.733 21.8471C105.486 21.7383 105.188 21.683 104.845 21.683H87.6572C87.3115 21.683 87.0155 21.7383 86.7692 21.8471C86.5209 21.9559 86.3185 22.096 86.1619 22.2693C86.0053 22.4445 85.8907 22.6418 85.8258 22.8667C85.7589 23.0916 85.7227 23.3129 85.7227 23.5286C85.7227 23.7609 85.7608 23.984 85.8353 24.2016C85.9098 24.4192 86.0263 24.6128 86.1829 24.7879C86.3395 24.9612 86.54 25.0995 86.7806 25.1991C87.0212 25.3005 87.3115 25.3503 87.6572 25.3503H104.845C105.188 25.3503 105.482 25.2987 105.721 25.1991C105.962 25.0977 106.16 24.9612 106.317 24.7879C106.473 24.6128 106.59 24.4192 106.664 24.2016C106.739 23.984 106.777 23.7591 106.777 23.5286C106.777 23.3111 106.743 23.0898 106.674 22.8667C106.611 22.6436 106.496 22.4445 106.34 22.2693Z" fill="#00274B"/>
<path d="M149.899 22.8667C149.834 22.6418 149.719 22.4445 149.562 22.2693C149.406 22.096 149.203 21.954 148.955 21.8471C148.709 21.7383 148.411 21.683 148.067 21.683H130.88C130.534 21.683 130.238 21.7383 129.992 21.8471C129.744 21.9559 129.541 22.096 129.385 22.2693C129.228 22.4445 129.113 22.6418 129.048 22.8667C128.982 23.0916 128.945 23.3129 128.945 23.5286C128.945 23.7609 128.984 23.984 129.058 24.2016C129.132 24.4192 129.249 24.6128 129.406 24.7879C129.562 24.9612 129.763 25.0995 130.003 25.1991C130.244 25.3005 130.534 25.3503 130.88 25.3503H148.067C148.411 25.3503 148.705 25.2987 148.944 25.1991C149.184 25.0977 149.383 24.9612 149.54 24.7879C149.696 24.6128 149.813 24.4192 149.887 24.2016C149.962 23.984 150 23.7591 150 23.5286C150.002 23.3129 149.967 23.0916 149.899 22.8667Z" fill="#00274B"/>
<path d="M130.937 17.103C131.214 17.3777 131.584 17.5769 132.05 17.7004C132.514 17.8221 133.085 17.8848 133.759 17.8848H147.099C147.414 17.8848 147.679 17.8258 147.897 17.7115C148.115 17.5953 148.294 17.4497 148.437 17.2763C148.581 17.103 148.684 16.9076 148.752 16.69C148.819 16.4724 148.854 16.2641 148.854 16.0613C148.854 15.8585 148.821 15.6538 148.752 15.4418C148.686 15.2316 148.584 15.038 148.449 14.8647C148.313 14.6913 148.134 14.5475 147.908 14.4295C147.683 14.3152 147.414 14.2562 147.099 14.2562H135.354C135.113 14.2562 134.949 14.212 134.859 14.1253C134.77 14.0386 134.724 13.8801 134.724 13.6478V10.305C134.724 10.0726 134.77 9.91593 134.859 9.83664C134.949 9.75736 135.113 9.71864 135.354 9.71864H146.738C147.053 9.71864 147.318 9.66333 147.536 9.55639C147.754 9.4476 147.933 9.30563 148.076 9.13232C148.22 8.959 148.319 8.76356 148.38 8.54599C148.441 8.32842 148.47 8.12008 148.47 7.91726C148.47 7.71444 148.441 7.50425 148.38 7.28853C148.319 7.07096 148.223 6.87552 148.088 6.7022C147.954 6.52704 147.773 6.38323 147.547 6.26707C147.324 6.15275 147.053 6.09375 146.738 6.09375H133.757C133.081 6.09375 132.512 6.15644 132.048 6.27813C131.582 6.40166 131.212 6.60079 130.935 6.87552C130.656 7.15209 130.454 7.50425 130.328 7.93938C130.2 8.37452 130.135 8.90184 130.135 9.52504V14.4332C130.135 15.0712 130.198 15.6059 130.328 16.041C130.456 16.4706 130.658 16.8265 130.937 17.103Z" fill="#00274B"/>
<path d="M60.9908 5.3949C60.3912 5.3949 59.866 5.57743 59.4172 5.93882C58.9666 6.30204 58.7412 6.83674 58.7412 7.54476V8.87044V22.3154V23.335V23.6392C58.7412 24.3472 58.9666 24.8819 59.4153 25.2451C59.8641 25.6065 60.3893 25.7891 60.9889 25.7891C61.5886 25.7891 62.1118 25.6065 62.5625 25.2451C63.0132 24.8838 63.2366 24.3472 63.2366 23.6392V23.335H63.2405V8.87044V7.54476C63.2405 6.83674 63.0151 6.3002 62.5644 5.93882C62.1176 5.57559 61.5924 5.3949 60.9908 5.3949Z" fill="#00274B"/>
<path d="M68.3513 17.079C69.1228 17.2818 69.9726 17.3832 70.9027 17.3832C72.6118 17.3832 74.0116 17.0477 75.0983 16.3747C76.1849 15.7017 76.8342 14.6415 77.0443 13.1923H80.0807V17.2763H80.0711V18.6001C80.0711 19.3082 80.2965 19.8429 80.7453 20.2061C81.194 20.5675 81.7173 20.75 82.3189 20.75C82.9185 20.75 83.4418 20.5675 83.8924 20.2061C84.3431 19.8447 84.5666 19.31 84.5666 18.6001V17.2763H84.557V7.50053C84.557 7.1539 84.4921 6.84967 84.3661 6.58785C84.2381 6.32788 84.07 6.11031 83.8581 5.937C83.648 5.76184 83.4074 5.62908 83.1381 5.53321C82.8669 5.43917 82.59 5.39124 82.3055 5.39124C81.7211 5.39124 81.2036 5.57008 80.7529 5.92409C80.3041 6.2781 80.0788 6.80173 80.0788 7.49684V9.79974H77.0423C76.817 8.39477 76.1562 7.3604 75.062 6.6948C73.9677 6.02919 72.5813 5.69362 70.9007 5.69362C69.9707 5.69362 69.119 5.79687 68.3494 5.99969C67.574 6.20066 66.9114 6.51226 66.3576 6.93264C65.8037 7.35303 65.3702 7.88588 65.0628 8.52937C64.7553 9.17469 64.6025 9.93802 64.6025 10.8194V12.2759C64.6025 13.1591 64.7553 13.9206 65.0628 14.5567C65.3702 15.1947 65.8018 15.7238 66.3576 16.1424C66.9152 16.5664 67.5779 16.878 68.3513 17.079ZM68.9929 10.6294C68.9929 10.021 69.1686 9.57664 69.52 9.2927C69.8733 9.0106 70.3355 8.87047 70.9046 8.87047C71.4736 8.87047 71.9358 9.0106 72.2891 9.2927C72.6405 9.5748 72.8181 10.021 72.8181 10.6294V12.4751C72.8181 13.0835 72.6405 13.5242 72.2891 13.8008C71.9358 14.0773 71.4736 14.2119 70.9046 14.2119C70.3355 14.2119 69.8733 14.0755 69.52 13.8008C69.1686 13.5242 68.9929 13.0835 68.9929 12.4751V10.6294Z" fill="#00274B"/>
<path d="M88.2177 18.1668C88.7773 18.1557 89.3445 18.0617 89.9174 17.9253C90.0969 17.8829 90.2745 17.8534 90.4559 17.7981C91.2121 17.5657 91.9474 17.2486 92.6597 16.8411C93.372 16.4373 94.05 15.9506 94.6954 15.3864C95.339 14.8203 95.9177 14.199 96.4275 13.5186C97.1036 13.5039 97.7395 13.5979 98.3411 13.8007C98.9407 14.0035 99.4754 14.3041 99.949 14.7023C100.316 15.0121 100.621 15.3956 100.892 15.8178C101.047 16.0852 101.188 16.3617 101.313 16.6531C101.334 16.7139 101.358 16.7692 101.381 16.8282C101.505 17.138 101.618 17.457 101.704 17.7981C101.872 18.4618 102.208 18.9265 102.72 19.1901C103.23 19.4538 103.788 19.5312 104.393 19.4243C105.025 19.2971 105.51 19.0242 105.844 18.6038C106.178 18.1816 106.291 17.6358 106.182 16.9647C106.1 16.3783 105.932 15.7883 105.697 15.1946L105.649 15.2002C105.569 14.9881 105.512 14.754 105.415 14.5585C104.912 13.5463 104.286 12.7037 103.535 12.0399C102.787 11.3743 101.947 10.8728 101.017 10.5409C100.087 10.2072 99.1489 10.0265 98.2055 9.99882C98.2188 9.95088 98.2246 9.90294 98.2379 9.85501C98.406 9.22443 98.5072 8.60676 98.5206 8.00015C98.5492 7.30504 98.3697 6.76297 97.9801 6.37024C97.5905 5.97936 97.0654 5.75442 96.4065 5.69726C95.7763 5.65485 95.2187 5.79682 94.7317 6.12133C94.2428 6.44584 93.9564 6.95657 93.8647 7.65168C93.7597 8.45188 93.5401 9.17834 93.2402 9.85501C93.1982 9.95088 93.1715 10.0578 93.1238 10.1519C92.7475 10.9041 92.2835 11.566 91.7278 12.1395C91.1739 12.7129 90.5476 13.1849 89.8505 13.5629C89.3998 13.8062 88.9396 13.9869 88.4736 14.1381C88.2177 14.2211 87.9637 14.3078 87.7021 14.3649C87.1311 14.4811 86.7033 14.7337 86.4188 15.1246C86.1323 15.5173 86.0216 15.9727 86.0827 16.4945C86.1419 17.0292 86.3749 17.4459 86.7797 17.7427C87.1846 18.0396 87.6639 18.1797 88.2177 18.1668Z" fill="#00274B"/>
<path d="M116.445 6.21912H109.809C109.464 6.21912 109.171 6.27812 108.933 6.39428C108.692 6.50859 108.497 6.65425 108.346 6.82757C108.196 7.00273 108.089 7.20001 108.02 7.42496C107.953 7.6499 107.919 7.87115 107.919 8.08688C107.919 8.30444 107.951 8.5257 108.02 8.7488C108.089 8.97374 108.199 9.17656 108.356 9.35725C108.513 9.53978 108.709 9.68544 108.942 9.8016C109.175 9.91776 109.462 9.97492 109.807 9.97492H115.027C115.206 9.97492 115.345 10.0265 115.443 10.1261C115.54 10.2294 115.59 10.3584 115.59 10.517V13.231H109.605C109.261 13.231 108.967 13.2864 108.728 13.3951C108.488 13.5021 108.293 13.6441 108.144 13.8174C107.993 13.9925 107.884 14.1861 107.815 14.4037C107.751 14.6213 107.714 14.8388 107.714 15.0564C107.714 15.2721 107.749 15.4934 107.815 15.7183C107.884 15.9451 107.997 16.1424 108.153 16.3157C108.31 16.4909 108.505 16.631 108.738 16.7398C108.971 16.8486 109.259 16.902 109.603 16.902H115.317C115.137 17.7133 114.868 18.3863 114.507 18.9228C114.146 19.4575 113.709 19.889 113.191 20.2153C112.676 20.5398 112.089 20.7887 111.438 20.9547C110.785 21.1206 110.077 21.2405 109.313 21.3142C108.742 21.3714 108.322 21.5595 108.05 21.8784C107.781 22.1974 107.646 22.5883 107.646 23.0529C107.646 23.3701 107.707 23.6503 107.827 23.8882C107.945 24.126 108.108 24.3251 108.31 24.4855C108.511 24.6441 108.744 24.7603 109.007 24.8322C109.269 24.9041 109.534 24.9336 109.805 24.9188C111.276 24.8469 112.632 24.6183 113.877 24.2348C115.122 23.8513 116.195 23.2465 117.093 22.4205C117.994 21.5945 118.699 20.5196 119.207 19.1957C119.717 17.8719 119.973 16.2309 119.973 14.2765V9.39044C119.973 8.37819 119.703 7.59643 119.163 7.04513C118.628 6.49568 117.719 6.21912 116.445 6.21912Z" fill="#00274B"/>
<path d="M129.267 13.6145C129.132 13.4338 128.952 13.2863 128.727 13.1702C128.501 13.054 128.217 12.995 127.871 12.995H127.13V7.50053C127.13 7.1539 127.065 6.84967 126.937 6.58786C126.811 6.32788 126.645 6.11031 126.443 5.937C126.24 5.76184 126.003 5.62908 125.734 5.53321C125.463 5.43917 125.186 5.39124 124.902 5.39124C124.317 5.39124 123.8 5.57008 123.349 5.92409C122.9 6.2781 122.675 6.80173 122.675 7.49684V22.3707V23.5138V23.6816C122.675 24.3823 122.898 24.9114 123.343 25.271C123.786 25.6287 124.306 25.8094 124.9 25.8094C125.494 25.8094 126.011 25.6287 126.456 25.271C126.901 24.9133 127.124 24.3823 127.124 23.6816V23.5138H127.128V16.7748H127.869C128.198 16.7748 128.48 16.7176 128.713 16.6015C128.946 16.4872 129.13 16.3378 129.265 16.1553C129.401 15.9746 129.498 15.7718 129.557 15.5468C129.617 15.3219 129.647 15.1006 129.647 14.8849C129.647 14.6673 129.617 14.4479 129.557 14.223C129.5 13.9999 129.403 13.7971 129.267 13.6145Z" fill="#00274B"/>
<path d="M21.6706 22.391C21.5197 22.225 21.3269 22.0904 21.0862 21.9872C20.8456 21.8858 20.5534 21.836 20.2097 21.836H13.8637V17.752H17.0319V17.7575L17.7213 17.7594C18.3974 17.7612 18.9455 17.7096 19.3637 17.6026C19.7838 17.4939 20.1123 17.315 20.3434 17.0624C20.5782 16.808 20.7368 16.4706 20.8208 16.0428C20.9048 15.615 20.9468 15.0914 20.9487 14.4682L20.9545 13.1868H20.9487V9.34799C20.9487 8.72663 20.9067 8.20115 20.8265 7.7734C20.7425 7.34564 20.584 7.00638 20.3529 6.75194C20.1199 6.49934 19.7953 6.31864 19.3751 6.20986C18.955 6.10108 18.4088 6.04761 17.7328 6.04761H6.09697H5.40757C4.73154 6.04761 4.18536 6.10292 3.76523 6.20986C3.34509 6.31864 3.01853 6.49934 2.78746 6.75194C2.55257 7.00638 2.39406 7.34564 2.31194 7.7734C2.22983 8.20115 2.18972 8.72663 2.18972 9.34799V10.6294V14.4737C2.18972 15.1098 2.22983 15.639 2.31194 16.0594C2.39406 16.4798 2.55257 16.8117 2.78555 17.0587C3.01662 17.3058 3.34318 17.4828 3.76332 17.5916C4.18154 17.7004 4.72963 17.7538 5.40566 17.7538H9.27663V21.836H2.93069C2.58694 21.836 2.29285 21.8876 2.05413 21.9872C1.81351 22.0904 1.61872 22.2232 1.46977 22.391C1.3189 22.5569 1.21005 22.7468 1.14321 22.9552C1.07637 23.1654 1.04199 23.3792 1.04199 23.5968C1.04199 24.0448 1.18904 24.4505 1.48122 24.8119C1.77341 25.1751 2.25656 25.3539 2.93069 25.3539H20.2078C20.8819 25.3539 21.365 25.1732 21.6572 24.8119C21.9494 24.4486 22.0965 24.0448 22.0965 23.5968C22.0965 23.3792 22.0621 23.1654 21.9933 22.9552C21.9303 22.745 21.8196 22.5569 21.6706 22.391ZM7.38602 14.3428C7.11676 14.3428 6.93342 14.2838 6.83412 14.1695C6.73673 14.0533 6.68898 13.8874 6.68898 13.6698V10.1298C6.68898 9.92879 6.72145 9.76838 6.7902 9.65222C6.85704 9.53606 7.00408 9.4789 7.22752 9.4789H15.888C16.1134 9.4789 16.2642 9.53606 16.3387 9.65222C16.4132 9.76838 16.4495 9.92879 16.4495 10.1298V14.3428H7.38602Z" fill="#00274B"/>
<path d="M39.6534 15.7146C40.2588 15.7146 40.7878 15.5302 41.2423 15.1651C41.6968 14.8001 41.924 14.258 41.924 13.5426V13.0724V7.54476C41.924 7.19628 41.8591 6.88837 41.7331 6.62286C41.6051 6.35367 41.4371 6.13057 41.2251 5.94988C41.015 5.76734 40.7706 5.6309 40.4956 5.53687C40.2168 5.44284 39.936 5.3949 39.6515 5.3949C39.0518 5.3949 38.5229 5.57743 38.0664 5.93882C37.6081 6.30204 37.3809 6.83674 37.3809 7.54476V12.204V13.0724V13.5426C37.3809 14.258 37.6081 14.7982 38.0626 15.1651C38.5171 15.5302 39.048 15.7146 39.6534 15.7146Z" fill="#00274B"/>
<path d="M25.5271 15.7109H31.2084L31.8978 15.7128C31.9265 15.7128 31.9456 15.7091 31.9723 15.7091H32.1117V15.7035C32.6827 15.6943 33.1697 15.6501 33.5402 15.556C33.9603 15.4473 34.2888 15.2684 34.5198 15.0177C34.7547 14.7632 34.9132 14.4258 34.9973 13.998C35.0813 13.5703 35.1233 13.0466 35.1252 12.4234V12.1469H35.129V7.91537C35.129 7.19076 34.9323 6.66528 34.5351 6.34078C34.1379 6.01627 33.6242 5.85217 32.994 5.85217C32.3943 5.85217 31.9035 5.99968 31.5197 6.29653C31.1378 6.59338 30.9296 7.07645 30.901 7.74206H26.65C26.6194 7.08936 26.417 6.61181 26.0427 6.30943C25.6665 6.00521 25.1871 5.85402 24.6047 5.85402C23.9897 5.85402 23.4722 6.01627 23.0521 6.34262C22.6319 6.66713 22.4219 7.19261 22.4219 7.91722V12.6299C22.4219 13.196 22.4658 13.6754 22.5556 14.0755C22.6453 14.4737 22.8057 14.7909 23.0387 15.0306C23.2717 15.2684 23.5925 15.4436 23.9955 15.5524C24.4041 15.6574 24.9121 15.7109 25.5271 15.7109ZM26.6538 10.6294H30.9048V12.606H27.2592C27.0052 12.606 26.8409 12.5783 26.7645 12.5193C26.6901 12.4603 26.6519 12.3091 26.6519 12.0639V10.6294H26.6538Z" fill="#00274B"/>
<path d="M41.5446 23.2483H28.3848C28.2206 23.2483 28.0964 23.2096 28.0124 23.1303C27.9303 23.0511 27.8902 22.9515 27.8902 22.8372V22.7726C27.8902 22.6565 27.9303 22.5588 28.0124 22.4795C28.0945 22.4002 28.2187 22.3596 28.3848 22.3596H38.2713H39.5203C40.5114 22.3596 41.2085 22.1974 41.6133 21.871C42.0182 21.5447 42.2206 20.9528 42.2206 20.0992V19.9129V19.8078V19.2178V18.9265C42.2206 18.0728 42.0182 17.4828 41.6133 17.1546C41.2085 16.8301 40.5114 16.666 39.5203 16.666H38.2713H24.6074C24.1873 16.666 23.8779 16.8006 23.685 17.068C23.4883 17.3372 23.3928 17.6229 23.3928 17.9272C23.3928 18.2461 23.4864 18.5356 23.6755 18.7956C23.8626 19.0574 24.1739 19.1865 24.6093 19.1865H37.2955C37.4463 19.1865 37.5418 19.2123 37.5877 19.2621C37.6316 19.3137 37.6564 19.404 37.6564 19.535V20.077H26.2956C25.2758 20.077 24.4966 20.3057 23.9562 20.7611C23.4158 21.2165 23.1465 21.836 23.1465 22.6178V22.8777C23.1465 23.2686 23.2152 23.6374 23.3489 23.9859C23.4845 24.3343 23.6869 24.6423 23.9562 24.9078C24.2274 25.1769 24.5558 25.389 24.9473 25.5494C25.3369 25.708 25.7876 25.7872 26.2956 25.7872H41.5465C41.9972 25.7872 42.3199 25.6526 42.5147 25.3853C42.7095 25.1161 42.805 24.8377 42.805 24.5482C42.805 24.2163 42.7037 23.9158 42.5032 23.6484C42.2989 23.3811 41.98 23.2483 41.5446 23.2483Z" fill="#00274B"/>
<path d="M57.0672 21.8803C56.9106 21.707 56.7101 21.5687 56.4695 21.4691C56.2289 21.3659 55.9367 21.3179 55.5929 21.3179H48.9567C48.5672 21.3179 48.2979 21.2552 48.147 21.1317C47.9962 21.01 47.9217 20.7593 47.9217 20.3831V18.0563C47.9217 17.6801 47.9962 17.4312 48.147 17.3077C48.2979 17.186 48.5652 17.1233 48.9567 17.1233H53.0588V17.1215H53.139C54.1301 17.1215 54.8272 16.9592 55.232 16.6329C55.6216 16.3194 55.8126 15.7478 55.8278 14.9476H55.8412V9.52136C55.8412 8.9 55.7801 8.37821 55.6617 7.95783C55.5414 7.53929 55.3313 7.19819 55.0315 6.93821C54.7317 6.67639 54.3306 6.48833 53.8265 6.37217C53.3242 6.25785 52.6845 6.19885 51.9034 6.19885H45.5384C45.1946 6.19885 44.9005 6.25417 44.6618 6.36111C44.4212 6.46989 44.2245 6.61186 44.0641 6.78518C43.9075 6.95849 43.7948 7.15394 43.728 7.3715C43.6592 7.58907 43.6268 7.80479 43.6268 8.02236C43.6268 8.23993 43.663 8.4575 43.7394 8.67506C43.8139 8.89263 43.9285 9.08623 44.0774 9.26139C44.2264 9.4347 44.4212 9.57299 44.6618 9.67255C44.9024 9.77581 45.1946 9.82374 45.5384 9.82374H50.7137C50.9677 9.82374 51.1338 9.88828 51.2083 10.0192C51.2828 10.1501 51.3209 10.2865 51.3209 10.4304V13.5795H47.2953C46.5906 13.5795 45.9891 13.6422 45.4964 13.7639C44.9998 13.8875 44.5988 14.094 44.2913 14.3853C43.9839 14.6748 43.7585 15.0509 43.6172 15.5155C43.474 15.9783 43.4033 16.5499 43.4033 17.2302V21.1833C43.4033 21.8637 43.474 22.4408 43.6172 22.911C43.7585 23.3811 43.9839 23.761 44.2913 24.0504C44.5988 24.3399 44.9998 24.5483 45.4964 24.6792C45.991 24.8101 46.5906 24.8746 47.2953 24.8746H55.5949C56.2709 24.8746 56.7579 24.6884 57.0577 24.3196C57.3575 23.9527 57.5084 23.5415 57.5084 23.0935C57.5084 22.8759 57.474 22.6639 57.4053 22.4537C57.3365 22.2454 57.2238 22.0536 57.0672 21.8803Z" fill="#00274B"/>
<path d="M11.5701 3.66545C12.6185 3.66545 13.4684 2.84491 13.4684 1.83273C13.4684 0.82054 12.6185 0 11.5701 0C10.5217 0 9.67188 0.82054 9.67188 1.83273C9.67188 2.84491 10.5217 3.66545 11.5701 3.66545Z" fill="#F0841A"/>
<path d="M32.6131 3.66545C33.6615 3.66545 34.5113 2.84491 34.5113 1.83273C34.5113 0.82054 33.6615 0 32.6131 0C31.5647 0 30.7148 0.82054 30.7148 1.83273C30.7148 2.84491 31.5647 3.66545 32.6131 3.66545Z" fill="#F0841A"/>
</svg>
