<?xml version="1.0" encoding="UTF-8"?>
<svg id="_레이어_1" data-name="레이어 1" xmlns="http://www.w3.org/2000/svg" version="1.1" viewBox="0 0 150 30">
  <defs>
    <style>
      .cls-1 {
        fill: #f0841a;
      }

      .cls-1, .cls-2 {
        stroke-width: 0px;
      }

      .cls-2 {
        fill: #fff;
      }
    </style>
  </defs>
  <path class="cls-2" d="M83.3,22.4h-12.2c-.3,0-.4,0-.5,0,0,0-.1-.2-.1-.5v-1.5c0-.7-.2-1.3-.7-1.6-.4-.3-1-.5-1.6-.5s-1.2.2-1.6.5c-.5.3-.7.9-.7,1.6v2.2c0,.6,0,1.1.1,1.5,0,.4.3.7.5,1,.2.2.6.4,1,.5.4.1.9.2,1.6.2h14.2c.7,0,1.2-.2,1.5-.5.3-.3.4-.7.4-1.2s-.1-.8-.4-1.2c-.3-.3-.8-.5-1.5-.5Z"/>
  <path class="cls-2" d="M106.3,22.3c-.2-.2-.4-.3-.6-.4-.2-.1-.5-.2-.9-.2h-17.2c-.3,0-.6,0-.9.2-.2.1-.5.2-.6.4-.2.2-.3.4-.3.6,0,.2-.1.4-.1.7s0,.5.1.7c0,.2.2.4.3.6.2.2.4.3.6.4.2.1.5.2.9.2h17.2c.3,0,.6,0,.9-.2.2-.1.4-.2.6-.4.2-.2.3-.4.3-.6,0-.2.1-.4.1-.7s0-.4-.1-.7c0-.2-.2-.4-.3-.6Z"/>
  <path class="cls-2" d="M149.9,22.9c0-.2-.2-.4-.3-.6-.2-.2-.4-.3-.6-.4-.2-.1-.5-.2-.9-.2h-17.2c-.3,0-.6,0-.9.2-.2.1-.5.2-.6.4-.2.2-.3.4-.3.6,0,.2-.1.4-.1.7s0,.5.1.7c0,.2.2.4.3.6.2.2.4.3.6.4.2.1.5.2.9.2h17.2c.3,0,.6,0,.9-.2.2-.1.4-.2.6-.4.2-.2.3-.4.3-.6,0-.2.1-.4.1-.7,0-.2,0-.4-.1-.7Z"/>
  <path class="cls-2" d="M130.9,17.1c.3.3.6.5,1.1.6.5.1,1,.2,1.7.2h13.3c.3,0,.6,0,.8-.2.2-.1.4-.3.5-.4.1-.2.2-.4.3-.6,0-.2.1-.4.1-.6s0-.4-.1-.6c0-.2-.2-.4-.3-.6-.1-.2-.3-.3-.5-.4-.2-.1-.5-.2-.8-.2h-11.7c-.2,0-.4,0-.5-.1,0,0-.1-.2-.1-.5v-3.3c0-.2,0-.4.1-.5,0,0,.3-.1.5-.1h11.4c.3,0,.6,0,.8-.2.2-.1.4-.3.5-.4.1-.2.2-.4.3-.6,0-.2,0-.4,0-.6s0-.4,0-.6c0-.2-.2-.4-.3-.6-.1-.2-.3-.3-.5-.4-.2-.1-.5-.2-.8-.2h-13c-.7,0-1.2,0-1.7.2-.5.1-.8.3-1.1.6-.3.3-.5.6-.6,1.1-.1.4-.2,1-.2,1.6v4.9c0,.6,0,1.2.2,1.6.1.4.3.8.6,1.1Z"/>
  <path class="cls-2" d="M61,5.4c-.6,0-1.1.2-1.6.5-.5.4-.7.9-.7,1.6v16.1c0,.7.2,1.2.7,1.6.4.4,1,.5,1.6.5s1.1-.2,1.6-.5c.5-.4.7-.9.7-1.6v-.3h0V7.5c0-.7-.2-1.2-.7-1.6-.4-.4-1-.5-1.6-.5Z"/>
  <path class="cls-2" d="M68.4,17.1c.8.2,1.6.3,2.6.3,1.7,0,3.1-.3,4.2-1,1.1-.7,1.7-1.7,1.9-3.2h3v4.1h0v1.3c0,.7.2,1.2.7,1.6.4.4,1,.5,1.6.5s1.1-.2,1.6-.5c.5-.4.7-.9.7-1.6v-1.3h0V7.5c0-.3,0-.7-.2-.9-.1-.3-.3-.5-.5-.7-.2-.2-.5-.3-.7-.4-.3,0-.5-.1-.8-.1-.6,0-1.1.2-1.6.5-.4.4-.7.9-.7,1.6v2.3h-3c-.2-1.4-.9-2.4-2-3.1-1.1-.7-2.5-1-4.2-1s-1.8.1-2.6.3c-.8.2-1.4.5-2,.9-.6.4-1,1-1.3,1.6-.3.6-.5,1.4-.5,2.3v1.5c0,.9.2,1.6.5,2.3.3.6.7,1.2,1.3,1.6.6.4,1.2.7,2,.9ZM69,10.6c0-.6.2-1.1.5-1.3.4-.3.8-.4,1.4-.4s1,.1,1.4.4c.4.3.5.7.5,1.3v1.8c0,.6-.2,1-.5,1.3-.4.3-.8.4-1.4.4s-1-.1-1.4-.4c-.4-.3-.5-.7-.5-1.3v-1.8Z"/>
  <path class="cls-2" d="M88.2,18.2c.6,0,1.1-.1,1.7-.2.2,0,.4,0,.5-.1.8-.2,1.5-.5,2.2-1,.7-.4,1.4-.9,2-1.5.6-.6,1.2-1.2,1.7-1.9.7,0,1.3,0,1.9.3.6.2,1.1.5,1.6.9.4.3.7.7.9,1.1.2.3.3.5.4.8,0,0,0,.1,0,.2.1.3.2.6.3,1,.2.7.5,1.1,1,1.4.5.3,1.1.3,1.7.2.6-.1,1.1-.4,1.5-.8.3-.4.4-1,.3-1.6,0-.6-.2-1.2-.5-1.8h0c0-.2-.1-.4-.2-.6-.5-1-1.1-1.9-1.9-2.5-.7-.7-1.6-1.2-2.5-1.5-.9-.3-1.9-.5-2.8-.5,0,0,0,0,0-.1.2-.6.3-1.2.3-1.9,0-.7-.2-1.2-.5-1.6-.4-.4-.9-.6-1.6-.7-.6,0-1.2,0-1.7.4-.5.3-.8.8-.9,1.5-.1.8-.3,1.5-.6,2.2,0,0,0,.2-.1.3-.4.8-.8,1.4-1.4,2-.6.6-1.2,1-1.9,1.4-.5.2-.9.4-1.4.6-.3,0-.5.2-.8.2-.6.1-1,.4-1.3.8-.3.4-.4.8-.3,1.4,0,.5.3,1,.7,1.2.4.3.9.4,1.4.4Z"/>
  <path class="cls-2" d="M116.4,6.2h-6.6c-.3,0-.6,0-.9.2-.2.1-.4.3-.6.4-.2.2-.3.4-.3.6,0,.2-.1.4-.1.7s0,.4.1.7c0,.2.2.4.3.6.2.2.4.3.6.4.2.1.5.2.9.2h5.2c.2,0,.3,0,.4.2,0,.1.1.2.1.4v2.7h-6c-.3,0-.6,0-.9.2-.2.1-.4.2-.6.4-.2.2-.3.4-.3.6,0,.2-.1.4-.1.7s0,.4.1.7c0,.2.2.4.3.6.2.2.4.3.6.4.2.1.5.2.9.2h5.7c-.2.8-.4,1.5-.8,2-.4.5-.8,1-1.3,1.3-.5.3-1.1.6-1.8.7-.7.2-1.4.3-2.1.4-.6,0-1,.2-1.3.6-.3.3-.4.7-.4,1.2s0,.6.2.8c.1.2.3.4.5.6.2.2.4.3.7.3.3,0,.5.1.8,0,1.5,0,2.8-.3,4.1-.7,1.2-.4,2.3-1,3.2-1.8.9-.8,1.6-1.9,2.1-3.2.5-1.3.8-3,.8-4.9v-4.9c0-1-.3-1.8-.8-2.3-.5-.5-1.4-.8-2.7-.8Z"/>
  <path class="cls-2" d="M129.3,13.6c-.1-.2-.3-.3-.5-.4-.2-.1-.5-.2-.9-.2h-.7v-5.5c0-.3,0-.7-.2-.9-.1-.3-.3-.5-.5-.7-.2-.2-.4-.3-.7-.4-.3,0-.5-.1-.8-.1-.6,0-1.1.2-1.6.5-.4.4-.7.9-.7,1.6v16.2c0,.7.2,1.2.7,1.6.4.4,1,.5,1.6.5s1.1-.2,1.6-.5.7-.9.7-1.6v-.2h0v-6.7h.7c.3,0,.6,0,.8-.2.2-.1.4-.3.6-.4.1-.2.2-.4.3-.6,0-.2,0-.4,0-.7s0-.4,0-.7c0-.2-.2-.4-.3-.6Z"/>
  <path class="cls-2" d="M21.7,22.4c-.2-.2-.3-.3-.6-.4-.2-.1-.5-.2-.9-.2h-6.3v-4.1h3.2s.7,0,.7,0c.7,0,1.2,0,1.6-.2.4-.1.7-.3,1-.5.2-.3.4-.6.5-1,0-.4.1-1,.1-1.6v-1.3s0,0,0,0v-3.8c0-.6,0-1.1-.1-1.6,0-.4-.2-.8-.5-1-.2-.3-.6-.4-1-.5-.4-.1-1-.2-1.6-.2H5.4c-.7,0-1.2,0-1.6.2-.4.1-.7.3-1,.5-.2.3-.4.6-.5,1,0,.4-.1,1-.1,1.6v5.1c0,.6,0,1.2.1,1.6,0,.4.2.8.5,1,.2.2.6.4,1,.5.4.1,1,.2,1.6.2h3.9v4.1H2.9c-.3,0-.6,0-.9.2-.2.1-.4.2-.6.4-.2.2-.3.4-.3.6,0,.2-.1.4-.1.6,0,.4.1.9.4,1.2.3.4.8.5,1.4.5h17.3c.7,0,1.2-.2,1.4-.5.3-.4.4-.8.4-1.2s0-.4-.1-.6c0-.2-.2-.4-.3-.6ZM7.4,14.3c-.3,0-.5,0-.6-.2,0-.1-.1-.3-.1-.5v-3.5c0-.2,0-.4.1-.5,0-.1.2-.2.4-.2h8.7c.2,0,.4,0,.5.2,0,.1.1.3.1.5v4.2H7.4Z"/>
  <path class="cls-2" d="M39.7,15.7c.6,0,1.1-.2,1.6-.5.5-.4.7-.9.7-1.6v-6c0-.3,0-.7-.2-.9-.1-.3-.3-.5-.5-.7-.2-.2-.5-.3-.7-.4-.3,0-.6-.1-.8-.1-.6,0-1.1.2-1.6.5-.5.4-.7.9-.7,1.6v6c0,.7.2,1.3.7,1.6.5.4,1,.5,1.6.5Z"/>
  <path class="cls-2" d="M25.5,15.7h6.4s0,0,0,0h.1c.6,0,1.1,0,1.4-.2.4-.1.7-.3,1-.5.2-.3.4-.6.5-1,0-.4.1-1,.1-1.6v-.3h0v-4.2c0-.7-.2-1.3-.6-1.6-.4-.3-.9-.5-1.5-.5s-1.1.1-1.5.4c-.4.3-.6.8-.6,1.4h-4.3c0-.7-.2-1.1-.6-1.4-.4-.3-.9-.5-1.4-.5s-1.1.2-1.6.5c-.4.3-.6.8-.6,1.6v4.7c0,.6,0,1,.1,1.4,0,.4.3.7.5,1,.2.2.6.4,1,.5.4.1.9.2,1.5.2ZM26.7,10.6h4.3v2h-3.6c-.3,0-.4,0-.5,0,0,0-.1-.2-.1-.5v-1.4h0Z"/>
  <path class="cls-2" d="M41.5,23.2h-13.2c-.2,0-.3,0-.4-.1,0,0-.1-.2-.1-.3h0c0-.2,0-.3.1-.4s.2-.1.4-.1h11.1c1,0,1.7-.2,2.1-.5.4-.3.6-.9.6-1.8v-.2h0v-1c0-.9-.2-1.4-.6-1.8-.4-.3-1.1-.5-2.1-.5h-14.9c-.4,0-.7.1-.9.4-.2.3-.3.6-.3.9s0,.6.3.9c.2.3.5.4.9.4h12.7c.2,0,.2,0,.3,0,0,0,0,.1,0,.3v.5h-11.4c-1,0-1.8.2-2.3.7-.5.5-.8,1.1-.8,1.9v.3c0,.4,0,.8.2,1.1.1.3.3.7.6.9.3.3.6.5,1,.6.4.2.8.2,1.3.2h15.3c.5,0,.8-.1,1-.4.2-.3.3-.5.3-.8s-.1-.6-.3-.9c-.2-.3-.5-.4-1-.4Z"/>
  <path class="cls-2" d="M57.1,21.9c-.2-.2-.4-.3-.6-.4-.2-.1-.5-.2-.9-.2h-6.6c-.4,0-.7,0-.8-.2-.2-.1-.2-.4-.2-.7v-2.3c0-.4,0-.6.2-.7.2-.1.4-.2.8-.2h4.1s0,0,0,0c1,0,1.7-.2,2.1-.5.4-.3.6-.9.6-1.7h0v-5.4c0-.6,0-1.1-.2-1.6-.1-.4-.3-.8-.6-1-.3-.3-.7-.4-1.2-.6-.5-.1-1.1-.2-1.9-.2h-6.4c-.3,0-.6,0-.9.2-.2.1-.4.3-.6.4-.2.2-.3.4-.3.6,0,.2-.1.4-.1.7s0,.4.1.7c0,.2.2.4.3.6.1.2.3.3.6.4.2.1.5.2.9.2h5.2c.3,0,.4,0,.5.2,0,.1.1.3.1.4v3.1h-4c-.7,0-1.3,0-1.8.2-.5.1-.9.3-1.2.6-.3.3-.5.7-.7,1.1-.1.5-.2,1-.2,1.7v4c0,.7,0,1.3.2,1.7.1.5.4.9.7,1.1.3.3.7.5,1.2.6.5.1,1.1.2,1.8.2h8.3c.7,0,1.2-.2,1.5-.6.3-.4.5-.8.5-1.2s0-.4-.1-.6c0-.2-.2-.4-.3-.6Z"/>
  <path class="cls-1" d="M11.6,3.7c1,0,1.9-.8,1.9-1.8s-.8-1.8-1.9-1.8-1.9.8-1.9,1.8.8,1.8,1.9,1.8Z"/>
  <path class="cls-1" d="M32.6,3.7c1,0,1.9-.8,1.9-1.8s-.8-1.8-1.9-1.8-1.9.8-1.9,1.8.8,1.8,1.9,1.8Z"/>
</svg>