<svg width="90" height="20" viewBox="0 0 90 20" fill="none" xmlns="http://www.w3.org/2000/svg">
<path d="M10 13.907L6.75806 15.8621C6.63734 15.9326 6.51636 15.9622 6.39511 15.951C6.27384 15.9398 6.16406 15.8989 6.06577 15.8284C5.9675 15.7579 5.89165 15.6658 5.83823 15.552C5.7848 15.4382 5.77625 15.3124 5.81259 15.1746L6.67315 11.4935L3.81098 9.01597C3.70415 8.92303 3.63604 8.81539 3.60667 8.69307C3.57729 8.57074 3.58504 8.45189 3.6299 8.33651C3.67477 8.22112 3.73941 8.12684 3.82381 8.05366C3.90822 7.98048 4.0236 7.93267 4.16996 7.91024L7.94719 7.58012L9.41352 4.10416C9.46694 3.97489 9.54786 3.87927 9.65629 3.8173C9.76474 3.75534 9.87932 3.72437 10 3.72437C10.1208 3.72437 10.2353 3.75534 10.3438 3.8173C10.4522 3.87927 10.5331 3.97489 10.5866 4.10416L12.0529 7.58012L15.8301 7.91024C15.9765 7.93267 16.0919 7.98048 16.1763 8.05366C16.2607 8.12684 16.3253 8.22112 16.3702 8.33651C16.4151 8.45189 16.4228 8.57074 16.3934 8.69307C16.364 8.81539 16.2959 8.92303 16.1891 9.01597L13.3269 11.4935L14.1875 15.1746C14.2238 15.3124 14.2153 15.4382 14.1619 15.552C14.1084 15.6658 14.0326 15.7579 13.9343 15.8284C13.836 15.8989 13.7262 15.9398 13.605 15.951C13.4837 15.9622 13.3627 15.9326 13.242 15.8621L10 13.907Z" fill="#377DFF"/>
<path d="M27.5 13.907L24.2581 15.8621C24.1373 15.9326 24.0164 15.9622 23.8951 15.951C23.7738 15.9398 23.6641 15.8989 23.5658 15.8284C23.4675 15.7579 23.3916 15.6658 23.3382 15.552C23.2848 15.4382 23.2763 15.3124 23.3126 15.1746L24.1731 11.4935L21.311 9.01597C21.2041 8.92303 21.136 8.81539 21.1067 8.69307C21.0773 8.57074 21.085 8.45189 21.1299 8.33651C21.1748 8.22112 21.2394 8.12684 21.3238 8.05366C21.4082 7.98048 21.5236 7.93267 21.67 7.91024L25.4472 7.58012L26.9135 4.10416C26.9669 3.97489 27.0479 3.87927 27.1563 3.8173C27.2647 3.75534 27.3793 3.72437 27.5 3.72437C27.6208 3.72437 27.7353 3.75534 27.8438 3.8173C27.9522 3.87927 28.0331 3.97489 28.0866 4.10416L29.5529 7.58012L33.3301 7.91024C33.4765 7.93267 33.5919 7.98048 33.6763 8.05366C33.7607 8.12684 33.8253 8.22112 33.8702 8.33651C33.9151 8.45189 33.9228 8.57074 33.8934 8.69307C33.864 8.81539 33.7959 8.92303 33.6891 9.01597L30.8269 11.4935L31.6875 15.1746C31.7238 15.3124 31.7153 15.4382 31.6619 15.552C31.6084 15.6658 31.5326 15.7579 31.4343 15.8284C31.336 15.8989 31.2262 15.9398 31.105 15.951C30.9837 15.9622 30.8627 15.9326 30.742 15.8621L27.5 13.907Z" fill="#377DFF"/>
<path d="M62.5 13.907L59.2581 15.8621C59.1373 15.9326 59.0164 15.9622 58.8951 15.951C58.7738 15.9398 58.6641 15.8989 58.5658 15.8284C58.4675 15.7579 58.3916 15.6658 58.3382 15.552C58.2848 15.4382 58.2763 15.3124 58.3126 15.1746L59.1731 11.4935L56.311 9.01597C56.2041 8.92303 56.136 8.81539 56.1067 8.69307C56.0773 8.57074 56.085 8.45189 56.1299 8.33651C56.1748 8.22112 56.2394 8.12684 56.3238 8.05366C56.4082 7.98048 56.5236 7.93267 56.67 7.91024L60.4472 7.58012L61.9135 4.10416C61.9669 3.97489 62.0479 3.87927 62.1563 3.8173C62.2647 3.75534 62.3793 3.72437 62.5 3.72437C62.6208 3.72437 62.7353 3.75534 62.8438 3.8173C62.9522 3.87927 63.0331 3.97489 63.0866 4.10416L64.5529 7.58012L68.3301 7.91024C68.4765 7.93267 68.5919 7.98048 68.6763 8.05366C68.7607 8.12684 68.8253 8.22112 68.8702 8.33651C68.9151 8.45189 68.9228 8.57074 68.8934 8.69307C68.864 8.81539 68.7959 8.92303 68.6891 9.01597L65.8269 11.4935L66.6875 15.1746C66.7238 15.3124 66.7153 15.4382 66.6619 15.552C66.6084 15.6658 66.5326 15.7579 66.4343 15.8284C66.336 15.8989 66.2262 15.9398 66.105 15.951C65.9837 15.9622 65.8627 15.9326 65.742 15.8621L62.5 13.907Z" fill="#377DFF"/>
<path d="M45 13.907L41.7581 15.8621C41.6373 15.9326 41.5164 15.9622 41.3951 15.951C41.2738 15.9398 41.1641 15.8989 41.0658 15.8284C40.9675 15.7579 40.8916 15.6658 40.8382 15.552C40.7848 15.4382 40.7763 15.3124 40.8126 15.1746L41.6731 11.4935L38.811 9.01597C38.7041 8.92303 38.636 8.81539 38.6067 8.69307C38.5773 8.57074 38.585 8.45189 38.6299 8.33651C38.6748 8.22112 38.7394 8.12684 38.8238 8.05366C38.9082 7.98048 39.0236 7.93267 39.17 7.91024L42.9472 7.58012L44.4135 4.10416C44.4669 3.97489 44.5479 3.87927 44.6563 3.8173C44.7647 3.75534 44.8793 3.72437 45 3.72437C45.1208 3.72437 45.2353 3.75534 45.3438 3.8173C45.4522 3.87927 45.5331 3.97489 45.5866 4.10416L47.0529 7.58012L50.8301 7.91024C50.9765 7.93267 51.0919 7.98048 51.1763 8.05366C51.2607 8.12684 51.3253 8.22112 51.3702 8.33651C51.4151 8.45189 51.4228 8.57074 51.3934 8.69307C51.364 8.81539 51.2959 8.92303 51.1891 9.01597L48.3269 11.4935L49.1875 15.1746C49.2238 15.3124 49.2153 15.4382 49.1619 15.552C49.1084 15.6658 49.0326 15.7579 48.9343 15.8284C48.836 15.8989 48.7262 15.9398 48.605 15.951C48.4837 15.9622 48.3627 15.9326 48.242 15.8621L45 13.907Z" fill="#377DFF"/>
<path d="M80 13.907L76.7581 15.8621C76.6373 15.9326 76.5164 15.9622 76.3951 15.951C76.2738 15.9398 76.1641 15.8989 76.0658 15.8284C75.9675 15.7579 75.8916 15.6658 75.8382 15.552C75.7848 15.4382 75.7763 15.3124 75.8126 15.1746L76.6731 11.4935L73.811 9.01597C73.7041 8.92303 73.636 8.81539 73.6067 8.69307C73.5773 8.57074 73.585 8.45189 73.6299 8.33651C73.6748 8.22112 73.7394 8.12684 73.8238 8.05366C73.9082 7.98048 74.0236 7.93267 74.17 7.91024L77.9472 7.58012L79.4135 4.10416C79.4669 3.97489 79.5479 3.87927 79.6563 3.8173C79.7647 3.75534 79.8793 3.72437 80 3.72437C80.1208 3.72437 80.2353 3.75534 80.3438 3.8173C80.4522 3.87927 80.5331 3.97489 80.5866 4.10416L82.0529 7.58012L85.8301 7.91024C85.9765 7.93267 86.0919 7.98048 86.1763 8.05366C86.2607 8.12684 86.3253 8.22112 86.3702 8.33651C86.4151 8.45189 86.4228 8.57074 86.3934 8.69307C86.364 8.81539 86.2959 8.92303 86.1891 9.01597L83.3269 11.4935L84.1875 15.1746C84.2238 15.3124 84.2153 15.4382 84.1619 15.552C84.1084 15.6658 84.0326 15.7579 83.9343 15.8284C83.836 15.8989 83.7262 15.9398 83.605 15.951C83.4837 15.9622 83.3627 15.9326 83.242 15.8621L80 13.907Z" fill="#377DFF"/>
</svg>
